<?xml version="1.0" encoding="utf-8"?>
<!-- Generator: Adobe Illustrator 24.1.2, SVG Export Plug-In . SVG Version: 6.00 Build 0)  -->
<svg version="1.1" id="Layer_1" xmlns="http://www.w3.org/2000/svg" xmlns:xlink="http://www.w3.org/1999/xlink" x="0px" y="0px"
	 viewBox="0 0 147.5 288.7" style="enable-background:new 0 0 147.5 288.7;" xml:space="preserve">
<style type="text/css">
	.st0{fill-rule:evenodd;clip-rule:evenodd;fill:#1D1D1B;}
</style>
<path class="st0" d="M75.3-2.4c0.1,0,0-0.2,0.5,0.2C75.7-2.3,76.1-1.8,75.3-2.4z"/>
<g>
	<path class="st0" d="M5.2,280.8L5.1,281H4.9H4.8c0,0,0.2,0,0.2,0c0.2,0.3-0.1,0,0,0.2c0.2,0,0.1,0,0.2,0.1c0.1,0.1-0.3-0.1-0.4-0.1
		s0,0-0.1,0h0.2H4.6c0,0,0.2,0,0.3,0s-0.3,0-0.4,0.1c-0.1,0.1-0.2,0.1-0.2,0.2c-0.1,0.1,0.2,0,0.2-0.1l-0.2,0.1h0.1
		c0,0-0.2,0.1-0.2,0.2c0,0.1,0.4-0.2,0.3,0c0,0,0.1,0,0.1,0c0,0,0-0.1,0.1-0.1c0,0,0,0,0,0.1c0,0,0.1,0,0.1,0v-0.1h0.3
		c1-0.3,2.8-0.7,3.3-1l3.4-0.7c-0.1,0,0.1-0.1,0.1-0.1l-0.9,0.3c0.3-0.1,0.6-0.2,0.9-0.3c0,0,0,0-0.2,0c0.8-0.2,1.5-0.4,0.4-0.2
		l1.5-0.3c0.5-0.1,1-0.3,1.5-0.5l2.9-1l5.9-2.2l11.2-5.2c0.5-0.3,0.2-0.1,0-0.1c0.7-0.3,1.3-0.7,1.9-1.2l2.1-0.7
		c0.7-0.5,0.1-0.3,0.1-0.3c1.8-1.1,3.6-1.9,5.3-2.9c1.6-1,3.2-2,4.6-3c0.9-0.4-0.1,0.3,1.1-0.4c-1.7,0.8,3.4-2.3,2.3-1.8
		c1.3-0.4,4.2-2.9,3.9-2.2c1.4-1,1.1-0.9,0.6-0.7c1.6-1.1,2.9-2,4.1-3.1c1-0.4,6.9-5.6,8.5-6.5c-1,0.6,0-0.1,0.8-0.9l-0.9,0.5
		c0.7-0.5,1.4-1.1,2-1.6c0.4-0.4,0.5-0.4,0.5-0.4c0.3-0.3,0,0.1,0.8-0.6c0.7-0.6,1.4-1.3,2-2l-0.2,0.2l0.9-0.8
		c0.7-0.6-2.2,2.1,0,0.3c0.5-0.6,1.1-1.2,1.8-1.8c-1.1,1-0.9,0.9-0.5,0.6l1.5-1.3l-0.6,0.3c2.2-1.9,4.3-4.1,6.5-6.1s4.4-4.3,6.5-6.6
		c0.1,0.2,3.1-3.2,2.9-2.6l-0.2,0.2c-1.1,1.1,0.5-0.2,1.3-1.1c-0.9,0.9,1.4-1.9-0.8,0.4l1.5-1.9c0.5-1.4,4.5-4.8,6.7-7.8
		c-0.1,0.1-0.1,0.2-0.2,0.3c2.1-2.6,4.9-5.6,5.3-6.3l0.3-0.2c1.2-1.8,2.5-3.6,3.9-5.3c0,0-0.2,0.4,0.1,0c0.6-1.2,1.4-2.3,2.2-3.3
		v0.1c0.7-1,1.4-1.9,2.1-2.9c0.3,0.2,3.3-5.3,4.2-6c0.3-0.7,1.6-2.9,2.2-4c0,0,0.1-0.1,0.2-0.2c0.5-1.3,2.1-3.4,2.7-4.8
		c0.4-0.9,0.2-0.6-0.1-0.2c1-1.8,1.9-3.7,2.7-5.6c0.6-1.3,0.4-0.4,0.6-0.7c0.9-2-0.5,0.2,0.9-2.4c-0.1,0.3-0.4,0.9-0.2,0.7
		c0.8-1.2,1.5-2.4,2.1-3.6l-0.4,0.6c0.8-1.5,1.5-3.1,2.1-4.7l-0.2,0.1c1.5-3.1,0.5-1.4,1.9-4.6c0.5-0.9,0.8-1.9,1-2.9l-0.2,0.5
		c0.6-1.8,0.7-2,1.3-3.8c0.1-0.2,0.3-1.1,0.5-1.4c-0.2-0.1,1.3-4.3,1.5-5.2c-0.4,1.5-0.2,0.8,0,0.4c0.1-0.9,0.3-1.8,0.7-2.7
		c-0.2-0.2-0.3-0.5,0.3-2.9c-0.1,0.4-0.1,1-0.1,0.7c0.1-0.3,0.2-0.7,0.2-1c0.1-0.2,0,0.6,0.1,0.3c0.2-1.7,0.7-2.8,1.1-5.2
		c-0.1,0.8,0.1,0.1,0.2-0.1c-0.2-0.2,0.8-3.2,0.4-2.4c1.1-4.6,1.7-12,1.9-13.8c0.1-0.9,0.1-1.8,0.1-2.6l0.1,0.1
		c-0.2-2.3,0-1.8-0.2-4.5c0.1,1.1,0.2,0.7,0.3-0.5l-0.3-1.9l0.2-0.4c0-0.8,0-1.6,0-2.5c0,0.4,0,0.2,0,0.2c-0.2-0.4-0.5-3.7-0.6-4.2
		c0.1-0.8-0.2-2.2-0.1-2.9c-0.1-0.3-0.1-0.7-0.2-1c-0.1,0.4-0.2,0.6-0.2-0.2v-0.2l0.1-0.3c-0.1-0.8-0.4-1.5-0.4-2c0,0.2,0,0.5,0,0.8
		c-0.1-0.3-0.1-0.6-0.1-0.9c0-0.1,0-0.2,0-0.3v0.2c-0.1-0.5-0.1-1.1-0.3-1.6c-0.2-1.4-0.4-2.9-0.7-4.3c-0.4-1.5-0.8-3-1-4.4
		c0.1,0.4,0.2,0.8,0.3,1.2c-0.6-2.4-0.9-4.9-1.5-6.3l-0.1,0.1c-0.6-1.7-1.1-3-1.5-4.4h-0.2c-0.5-2.1-2.4-6.2-2.6-7.5
		c-0.3-0.4-1-2.8-1.6-3.8v-0.3c-0.6-1.4-1.1-2.3-1.5-3.1c-1.1-2.8-2.5-5.4-4.1-8l-1.4-2.5c0.5,0.6-0.3-0.4-0.8-1.2s-1.2-2-1.8-2.9
		l-0.9-1.5c1,1.7,0-0.2,0-0.4l-0.7-0.9c-0.2-0.4,0.5,0.5,0-0.1c-0.5-0.6-1.8-2.5-2.3-3c0.1,0.2,0.2,0.4,0.4,0.7l-0.2-0.2
		c-0.8-1.2-0.6-0.7-0.6-0.7c-0.8-1.5-1.4-2.1-1.9-3.3c0.4,0.8-0.1,0-0.7-0.8s-1.3-1.7-1.1-1.2c-0.6-1.1-0.5-0.7-0.8-1.4
		c1,1.4,2.2,2.6,3,3.7l-0.7-1.2c0.8,1,1.5,2.1,2.2,3.2c-0.4-0.5-0.7-1-1-1.5l0.1,0.4c1.1,1.6,2,2.8,2.9,3.9c-0.7-1.1,1,1.2,0.5,0.4
		l-0.6-0.8c-0.2-0.4,0.4,0.4,0.8,0.8c0.1,0.2,0.3,0.5,0.5,0.8c0,0,0.1,0.1,0.1,0.2c0.6,0.9,0.6,1,0.4,0.7c1.7,2.7,3.9,6.2,4.2,7.1
		c-0.3-0.7-0.8-1.4-1.3-2.1c0.2,0.4,0.5,0.9,0.7,1.3c-0.6-1.1-1-2-2-3.5c0.1,0.3-0.7-0.7-0.1,0.5c1.7,3,1.8,2.3,3.7,6
		c0.2,0.3-0.6-0.7,0.5,1.3c0.7,1.2,1.4,2.2,1.9,2.9s0.8,1.1,0.9,1.1c-0.5-1.1-1.8-3.1-1.8-3.5c0.7,1.1,1.6,2.9,1.8,2.9
		c0.4,1.2-1-2-0.5-0.5c0.2,0.5,0.5,0.9,0.8,1.4c-0.3-0.5,0.3,0.7,0.3,1c1.1,2.5,1.8,3.8,2.8,6.6c0,0.2,0,0.4,0,0.4
		c0.6,1.3,1.5,3.1,1.5,2.5c0.6,1.6,0.6,1.7,1.1,3c-0.7-2.2,0.2,0.4,0.4,0.6c0.5,1.4,0.1,0.5,0.2,1.2c0.1,0.3,0.2,0.5,0.4,0.8
		c0.1,0.9-0.8-1.5-0.7-0.5c0.1,0.7,0.9,3.7,0.9,3.9c0.4,0.6,0.9,0.2,0.8-0.8c0.2,0.6,0.4,1.3,0.5,1.9c0.4,1.8,0.8,2.7,1.2,4.2
		l-0.4-1.1c0.2,0.9,0.4,1.9,0.7,2.8c-0.1,0.1-0.6-1.1-0.5-0.4c0.3,1.2,0.6,2.4,1,3.5c0.3,0.9,0.6,1.5,0.6,1.4
		c-0.2-1.4-0.7-2.7-1.1-4.1c0.1-0.2,0.8,2.9,1,2.7c0.2,1.3,0.4,2.6,0.6,3.8c-0.1-0.5-0.4-2-0.4-1.4c0.1,0.6,0.2,1.3,0.2,2
		c-0.2-0.9-0.6-2.3-1-3.4s-0.9-2.3-1.1-2.9l0.6,1.9v0.5c0.4,1.9,1,3.7,1.8,5.4c0.2,1.5-0.2,1-0.3,0.7c0.5,1.9,0.8,3.8,1.1,5.8V103
		c0.1,0.7,0.3,3.2,0.3,3c0,0.6-0.2,1.1-0.3,0.5l0.5,2.6c-0.1-0.4-0.4-0.1-0.4-0.3c0.1,1.1,0.4,1.8,0.4,1.1c-0.1,2.1-0.1,1.5-0.2,3.2
		c0,0.6,0.3-0.1,0.3-0.5c0.1,0.8,0.1,1.6,0,2.4l0.2-0.4c-0.1,0.7-0.1,1.3,0,2l-0.4-1.3l0.1-0.2c-0.1-1.8-0.5-0.3-0.7-0.7l0.6,4.9
		c-0.1-0.2-0.2-0.4-0.3-0.5c0.1,3-0.1,5.9-0.5,8.8v-0.4c-0.2,0.9-0.4,1.8-0.4,2.8c0-0.3,0-0.5,0-0.8c-0.5,1.8,0,2.5-0.5,4.2
		c0.3-1.7,0.1-1.9,0.1-1.9c-0.1,1.4-0.7,4.5-0.4,3.9c-0.2,0.9-0.4,1.7-0.5,1.6c-0.2,1.1-0.3,2.3-0.5,3.4c0-0.2,0-0.5-0.2,0.5
		c0.5-1.9,0.5-3.7,0.9-4.7c-0.1-0.1-0.3,0.6-0.3-0.3c-0.6,3.6-0.8,5.7-1.1,8c-0.3,1.1-0.6,2.1-0.9,3.1v0.2l-0.3,0.5
		c0,0.2-0.1,0.5-0.1,0.7c0,0.1,0-0.1,0-0.2c-0.1,0.3-0.1,0.5-0.2,0.8c-0.1,0.1,0-0.5,0-1.1l0.3-0.8c0.1-0.6,0.1-1.1-0.2-0.3
		l-0.1,0.5c0-0.4,0.1-0.7,0-0.4l-0.6,2.4c0.1-0.2,0.3-0.7,0.4-1.1c-0.3,1.6-0.7,3.3-0.1,2l-0.6,1.8c-0.5,2.2-0.4,1.8-1.1,4.4
		c-0.1,0.1,0.1-0.6-0.1-0.1c-0.4,1.9-1.8,4.5-1.8,4.9c-0.5,1.5-0.1,0.7-0.4,1.6c0-0.1,0-0.2-0.1,0.1l-0.3,1.2
		c-0.2,0.4,0.3-1.1-0.2,0.2c-0.8,2.2-1.3,3.5-2.1,5.3c-1.1,2.5,0.7-1-0.3,1.1c-0.5,0.5-0.8,1.1-1.1,1.8c-0.2,0.6-0.4,1.3-0.6,1.9
		l-0.1-0.1c-0.3,0.7-0.6,1.3-1,1.9c-0.3,0.7-0.6,1.3-0.9,2c-0.7,1.7,0.9-1.1,1.2-1.4c-0.6,1.2-1.3,2.4-2.1,3.5l0.7-1.4
		c-1.8,2.9-1.3,3-2.4,4.2c0.6-1,1.1-2.3,0.7-1.8l-0.7,1.5c-0.1,0.2,0.2-0.7,0-0.2c-0.2,0.4-0.6,1.3-0.8,1.8l-1.5,2.7
		c0.3-0.5,0.3-0.8,0-0.2s-0.6,1.2-0.9,1.8c0.3-0.5-0.1,0-0.6,0.7c-1.4,2.1-0.7,1.9-2,3.5c0.2-0.2,0.2-0.3,0.3-0.5
		c-0.2,0.3-0.4,0.5-0.6,0.8c0.2,0.4-3.3,5-3.2,5.4c-1,1.1-0.1,0.1,0.8-1.6l-1,1.2c0.4-0.5,0.7-1,1-1.5c-1,1.3-2,2.6-2.9,4
		c-0.5,0.6,0.2-0.6-1.1,1.2c-1.8,2.6,0.6-0.3-0.5,1.2l-1,1c-1.4,2-2.6,3.3-3.8,4.9c-0.2,0.2-0.3,0.4-0.5,0.7
		c-1.4,1.7-2.7,3.6-3.8,4.8c0.2-0.3-0.7,0.7-0.8,0.8l-1.8,2.3c0.8-1,0.7-1.1,0.8-1.3c-0.6,0.7-0.8,1.1-1.2,1.6
		c0.2-0.3,0.4-0.6,0.1-0.3l-1.9,2.4l0.6-0.6c-0.5,0.6-1.6,1.9-2.4,2.6c0-0.1,0.3-0.4,0.3-0.5c0.5-0.4,0.9-0.9,1.2-1.5
		c-1.4,1.6-0.4,0.4-1.1,1.1c-1,1.1-1.3,1.7-1,1.4c-1.2,1.2-1.5,1.6-2.6,2.9l0.1-0.3l-1.1,1.2l0.8-1c-2.2,2.1-0.2,0.6-2.6,3l-0.1-0.1
		c-0.5,0.8-1.1,1.5-1.8,2.1c-0.8,1,1.6-1.4-0.4,0.7c-0.4,0.4-1.1,1.1-1.9,1.8c-0.7,0.7,0.6-0.4,1-0.8c-3.2,3.2-2.3,1.6-5.1,4.5
		c1.1-0.9-0.7,1,1.7-1.3c-1.1,1.1-2.3,2-3.4,3.2l0.6-0.8c-0.4,0.4-0.9,0.9-1.1,1.1v-0.2c-1.3,1.6-2.8,2.4-3.5,3.4
		c0.5-0.7-1.1,1-1.8,1.5c1.1-1.3,3.5-3.2,3.5-3.5c-0.6,0.5-1.1,1-1.6,1.4c0.4-0.4,0.9-0.9,1-1.1c-1.4,1.2-2.7,2.5-4,3.8l2-1.8
		c0,0.3-0.9,0.8-1.4,1.5c-1.1,0.8-1.8,1.6-2.6,2.3l0.4-0.4c-1.3,1.1-2.6,2-4,2.9c-0.9,0.7-2.5,2.2-1.9,1.8c-0.7,0.6,3-2.5,1.9-1.2
		c-1.5,0.9-2.6,2.3-5.6,4.4c1.2-1.1-0.9,0.4,0.2-0.5c-0.7,0.5-1.4,1.1-2,1.8l-0.5,0.2c-1,0.9-2,1.7-3.1,2.5c0.9-0.7-1.2,0.7-0.5,0.1
		c-0.8,0.6-1.5,1.1-2.1,1.6l0.1-0.1c-2.8,2.1-2.5,1.6-5.1,3.3l0.3-0.1c-1.7,1.2-3.7,2.5-5.7,3.8l-6.1,3.4l1.4-0.7
		c-0.4,0.2-2.5,1.5-3.7,2.1l0.9-0.5c-0.5,0.1-1,0.3-1.5,0.6l-0.3,0.3l-0.4,0.1c-1.4,0.6,0.5-0.1-0.9,0.6c-1,0.1-6.2,2.8-7.5,3.2
		c-0.9,0.7,2.7-1.2,1.8-0.6c-0.5,0.2-0.7,0.2-1.6,0.7H27c-1.7,0.8-3.5,1.5-5.3,2c-1.5,0.5-2.9,1-4.9,1.8h0.1c-1,0.3-1.9,0.7-2.8,1.1
		c-0.3,0.1,0.7-0.4,0.1-0.2c-2.5,1-5.2,1.1-6.7,1.8c0.1-0.3-3.3,0.4-1.9-0.2l-0.4,0.1c0.1,0.2,0.3,0.5,0.5,0.6c0-0.1,0-0.2,0-0.4
		c-0.1,0.2-0.2-0.1-0.4-0.1l0.2,0.2c0-0.1,0.1,0,0.2-0.1C5.7,282,5.9,282,6,282.1s0-0.2-0.1-0.2c0.2-0.2,0.1,0.3,0.3,0.2
		c0,0,0.3,0,0.2,0c0.2,0,0.7,0.1,0.7,0.4c0-0.1,0-0.2,0-0.3l0.2,0.8c0-0.1,0.1-0.3,0.1-0.5c0,0,0,0,0,0l0,0c0-0.1,0-0.2,0-0.3
		c0.1,0,0.2,0,0.2,0c0,0,0.4,0.4,0.6,0.4s0.1-0.1,0.3-0.2c0,0,0,0.3,0,0.4c0-0.1,0-0.2,0-0.3l0.1,0.3c0,0,0-0.2,0.1-0.3
		c0.1-0.1,0.2,0,0.2,0H8.9c0.2,0,0.1,0.5,0.4,0.5c0.2,0.1,0-0.4,0.2-0.4c0,0,0,0,0,0c0,0,0.1,0,0.1,0c0,0,0-0.1,0.1,0
		c0.2,0.1,0-0.1,0-0.2H10c0,0.2,0.2,0.2,0.1,0.4l-0.3-0.3c0,0.2,0,0.6,0.3,0.6c0.3,0,0-0.3,0-0.4c0-0.1,0.2,0.2,0.2,0.1v-0.1
		c0.1,0,0.1,0.3,0.3,0.2c0.2-0.1,0.2-0.2,0.2,0c-0.2,0.3-0.3,0.6-0.3,0.9c0.1,0,0.3-0.1,0.4-0.2c0.1-0.1,0-0.4,0-0.5
		c0,0,0,0.1,0,0.1c0,0,0-0.1,0.1-0.1c0.1,0.1,0.2,0,0,0.2c0.1,0,2.1,1,2.3,1s0,0.4,0.1,0.5v-0.1c0.2,0,0.4,0,0.6,0.1
		c0.2,0.1,0.2,0,0.1-0.1s0,0.1,0.1,0.1c0.1,0-0.1,0,0-0.2c0.1-0.2,0.1,0.2,0.2,0.3c0.1,0.1-0.2,0-0.3-0.1c-0.1,0.2,0,0.5,0.2,0.6
		c0-0.1,0-0.2,0.1-0.2l0.1,0.1c0,0,0-0.1,0-0.1c0,0.1,0,0.1,0,0.2c0.1,0,0.1,0,0.2,0c0,0,0,0.1,0,0.2c0.1,0.1,0.1,0.3,0.3,0.3
		c0.3-0.1,0-0.3,0.2-0.4c0.2-0.1-0.3,0-0.3,0h0.4c0,0-0.1-0.1-0.2-0.1c-0.1,0,0.6,0.2,0.8,0.2s0.1,0.1,0,0.2c-0.1,0,0.1,0.2,0,0.2
		s0.2,0.3,0.3,0.3l0.1-0.1c0,0-0.1,0-0.2,0s0.3-0.1,0.3,0.1h-0.1c0.1,0.1,0.1,0.3,0.3,0.3c0,0,0,0,0,0c0.1,0,0,0,0,0.1c0,0,0,0,0,0
		h0c0,0,0,0,0,0c0,0,0,0,0,0.1l0,0.1l0-0.1c0,0,0,0,0,0c0.1,0.1,0.1,0,0,0h0c0,0,0,0.1,0,0.1c0,0-0.1-0.1-0.1-0.2c0,0,0,0,0,0h0
		c0,0,0,0,0,0c0,0,0,0-0.1,0c0.2-0.2-0.3-0.1-0.1-0.3c-0.2,0.2-0.2,0-0.4,0.2c-0.2,0.2,0.1-0.1,0-0.1c0-0.1-0.2-0.2-0.2-0.3
		c0-0.1,0,0,0,0.1v-0.1c0,0.1-0.2,0.1-0.1,0.2h-0.1c-0.1,0-0.2,0-0.3,0c-0.1,0-0.1-0.2-0.1,0l-0.2-0.1c-0.1,0-0.2-0.1-0.4-0.2
		c0,0,0,0,0,0c-0.1,0.1-0.1,0.1,0-0.1c-0.1,0-0.2-0.1-0.3,0c-0.1-0.1-0.2-0.1-0.3-0.1c-0.1,0-0.3,0-0.3-0.1c-0.2,0.2-2.5-1-2.6-1
		v-0.1c-0.1,0-0.2-0.1-0.3-0.2v-0.1c-0.1-0.1-0.3,0-0.5,0s0,0,0.1,0c-0.3,0.2-0.4-0.3-0.7-0.2c0,0-0.1,0-0.1,0H9.2
		c-0.1,0-0.1,0-0.2-0.1v0.1c0,0,0,0,0-0.1V284c-0.1,0.2-0.2-0.1-0.3,0c0-0.1-0.3-0.2-0.3-0.4c0,0-0.2,0-0.2,0v0.1l-0.1-0.2
		c-0.1,0-0.2,0.1-0.1,0.3c-0.2-0.2-0.2-0.1-0.3-0.3v0.1c0,0-0.1-0.2-0.2-0.1c-0.1,0.1-0.7-0.1-1.2,0c0.1-0.3-0.2,0-0.2-0.1
		c0,0-0.1,0,0,0.2c0.1,0.2-0.3,0-0.4-0.2c0,0,0,0.1,0,0.2s0,0-0.1,0c0,0-0.2-0.3-0.2-0.5c-0.1,0-0.2,0-0.3-0.1
		c-0.1-0.1-0.2,0.1,0,0.2c0.2,0.1-0.7,0-0.6-0.2c0.1-0.2-0.1,0-0.2,0c-0.1,0-0.3,0-0.4,0h0.1c0.2-0.2-0.1,0-0.2-0.1
		c-0.3,0-0.3,0-0.3,0H3.6h0.2c0.4-0.2,0-0.2,0.2-0.4c0.2-0.1-0.3-0.2-0.3-0.3l-0.1,0.1c0-0.3,0.2,0,0.4-0.3c-0.1,0-0.3,0-0.2-0.1
		c0,0,0,0,0,0c-0.3,0.1-0.6,0.2-0.9,0.3l0.8-0.4h0.2c0.2-0.1,0.5-0.4,0.5-0.6c0,0,0,0.2,0.2,0c0.2-0.2,0-0.4,0.2-0.4
		c0.1,0,0.3-0.2,0.4-0.2c-0.3-0.3,0.5-0.4,0.2-0.6l0.2-0.2c0.1-0.1,0.2-0.2,0.3-0.2C6,279,6,279,6.3,278.9l-0.1-0.1
		c0.1,0,0-0.5,0.3-0.6c0.3-0.2,0.1-0.9,0.6-0.7l0.2-0.1c-0.1,0.2,0.2,0,0.2,0.2s0-0.3,0-0.2c-0.2-0.1,0.1-0.3,0-0.4
		c0.3-0.4,0.5-0.9,0.7-1.4l0.1,0.2l0.1-0.1c0,0-0.1-0.1-0.2,0c-0.1,0.1,0.2-0.1,0.2-0.1c0-0.2-0.2,0-0.2-0.1c0.1,0,0.2,0,0.3-0.1
		c0.1-0.1,0-0.1,0-0.1l0.1-0.2l0.1,0.2c0.1,0,0.1-0.2,0.2,0c-0.1-0.3,0.4-0.7,0.4-0.9c0.1,0,0.2-0.2,0.3-0.3c0,0,0.1,0.2,0.2,0
		c-0.3-0.2,0-0.3-0.1-0.6c0.1,0.2,0.3-0.3,0.4,0c0-0.1-0.1-0.1-0.1-0.2c0.3-0.2,0.3-0.6,0.5-0.8c0,0,0,0.1,0.2,0l-0.1-0.3
		c0,0,0.2,0.1,0.2,0c-0.1-0.1,0,0,0.1,0c0.2-0.7,0.9-1.1,1-1.9c0,0.1,0,0,0.1,0c0.1,0,0.1,0,0.1,0.1v-0.3c0.2,0,0.2-0.3,0.3-0.2
		c0.2,0,0.3,0.4,0.5,0.5c-0.3,0,0,0.5-0.3,0.5c0,0,0.1,0,0.1,0c0,0-0.1,0-0.1,0c0,0-0.1,0.1-0.1,0.1c-0.2,0.3-0.3,0.5-0.4,0.9
		l-0.1-0.1c0,0.1,0,0.1,0,0.2c-0.2,0,0.1-0.2-0.1-0.2c0.1,0.2-0.3,0.5-0.2,0.7c0,0.1-0.1-0.1-0.2,0h-0.1c0,0.1,0,0.2,0,0.2
		c0,0.2-0.2,0.2-0.2,0.3v-0.1c-0.3,0.2-0.4,0.7-0.7,0.9c-0.2,0.2,0,0.2-0.3,0.4c0.1-0.1,0-0.3-0.1-0.4c-0.1-0.1-0.3,0-0.3,0.1
		c0.1,0,0,0.2,0.1,0.2c-0.3,0.2-0.2,0-0.4,0.1c-0.1,0-0.2,0-0.3,0c-0.1,0,0,0.2,0.2,0.1c0,0.4-0.4,0.3-0.3,0.6c-0.3,0,0-0.3,0-0.3
		s-0.2,0-0.3,0c0,0,0.2,0.3,0,0.6c0,0.1-0.2,0.1-0.2,0.3c0,0.2,0,0.1-0.3,0l0.2-0.2c-0.1,0-0.4,0-0.4,0.3c0.1,0,0.1,0,0.2,0
		c0,0-0.1,0-0.1,0.2c0,0.2,0.2-0.2,0.4-0.2c0.2,0-0.3,0.1,0,0.2c-0.3,0-0.1,0.2-0.4,0.2h0.1H8.4h0.2c-0.2,0,0,0.3-0.2,0.4
		c0.2-0.2-0.1-0.1-0.1-0.3c-0.3,0.2,0.2,0.4-0.1,0.6c0,0,0-0.2,0-0.2c0,0.1,0,0.2,0,0.3c-0.2,0.2-0.1-0.1-0.2,0
		c-0.1,0.1-0.1,0-0.2,0.1h0.1c-0.1,0.3-0.3,0-0.3,0.2h0.2H7.7h0.1c-0.2,0-0.2,0.1-0.2,0.2c0,0-0.1-0.1-0.1-0.1c-0.1,0-0.1,0-0.1,0.1
		c0,0.1,0.1,0,0,0.2c-0.1,0.2,0.2,0,0.1,0h0.1c0,0.1-0.1,0.2-0.2,0.3l-0.3,0.1c0,0,0,0,0.1,0s-0.1,0-0.2,0c-0.1,0,0.2,0.1,0.3,0
		l-0.2,0.1c0,0,0,0.2,0.1,0.2c0.1,0-0.3,0.2-0.4,0.4c-0.1,0.2,0,0.4-0.3,0.4l0.1,0.2c-0.1,0.1-0.1-0.3-0.3,0
		c-0.2,0.3,0.1,0.2,0.1,0.2c0,0.1-0.4,0-0.3,0.3c0,0.2,0,0.3,0,0.5c0.2,0,0.2-0.2,0.3,0c-0.3-0.2-0.3,0.4-0.6,0.2v0.1
		c0,0.2-0.3,0-0.4,0.2c-0.1,0.2,0,0.2,0,0.1L5.2,280.8L5.2,280.8l0.3-0.1l-0.1-0.1l0.1,0.1l0.7-0.1l-0.5,0.2l-0.2,0l0,0v0l0,0
		L5.2,280.8z"/>
	<path class="st0" d="M9.7,283.6l0.1,0.1c-0.1-0.3-0.2-0.6-0.3-0.9c0,0,0,0,0,0c0,0,0,0,0,0C9.5,283,9.5,283.5,9.7,283.6z"/>
	<path class="st0" d="M4.8,281.7c0,0.1,0,0.1,0,0.2l0.2-0.1c-0.1,0.1-0.1,0.3,0,0.4l-0.1,0.1l0.2,0.1c0,0,0,0,0-0.2
		c0.1,0,0-0.2,0-0.3H4.9c0-0.1,0-0.2,0-0.3v0L4.8,281.7z"/>
	<path class="st0" d="M4.6,281.7L4.6,281.7C4.6,281.8,4.5,281.8,4.6,281.7z"/>
	<path class="st0" d="M14.6,286.7L14.6,286.7L14.6,286.7C14.6,286.7,14.6,286.7,14.6,286.7l0,0.1L14.6,286.7
		C14.5,286.7,14.5,286.7,14.6,286.7L14.6,286.7L14.6,286.7L14.6,286.7C14.6,286.7,14.6,286.7,14.6,286.7L14.6,286.7L14.6,286.7z"/>
	<path class="st0" d="M15.5,286.7c0,0-0.1-0.1-0.1-0.1c0,0,0,0,0,0C15.4,286.7,15.4,286.6,15.5,286.7
		C15.5,286.7,15.5,286.7,15.5,286.7L15.5,286.7L15.5,286.7C15.5,286.7,15.5,286.7,15.5,286.7L15.5,286.7L15.5,286.7L15.5,286.7
		C15.6,286.7,15.6,286.7,15.5,286.7l0.1-0.1c0,0,0.1,0.1,0,0.2c0,0,0,0,0,0c0,0,0-0.1,0-0.1C15.7,286.7,15.6,286.7,15.5,286.7
		C15.6,286.7,15.6,286.7,15.5,286.7L15.5,286.7C15.6,286.7,15.6,286.7,15.5,286.7C15.6,286.7,15.6,286.7,15.5,286.7
		c0.1,0,0.1,0,0.1,0L15.5,286.7z"/>
	<path class="st0" d="M15.5,286.7L15.5,286.7L15.5,286.7C15.6,286.7,15.6,286.8,15.5,286.7L15.5,286.7z"/>
	<path class="st0" d="M15.5,286.7L15.5,286.7C15.5,286.7,15.5,286.7,15.5,286.7L15.5,286.7z"/>
	<path class="st0" d="M18.6,286.8L18.6,286.8c-0.1-0.1-0.1-0.1-0.1-0.1h0l0,0c-0.1,0-0.1-0.1-0.2-0.1c0.2-0.2,0.3,0.1,0.4,0.1v0.2
		C18.7,286.9,18.7,286.8,18.6,286.8L18.6,286.8C18.6,286.8,18.6,286.8,18.6,286.8L18.6,286.8z"/>
	<path class="st0" d="M144.8,100.6c-0.2,0.5-0.1-0.1-0.5-1c0.2,0.4-0.2-1.1,0-0.8c0.1,0.4,0.1,0.6,0.1,0.7l0,0l0,0
		C144.6,99.8,144.7,99.4,144.8,100.6z"/>
	<path class="st0" d="M140.8,148.1c-0.1,0.2-0.1,0.5-0.2,0.7c0,0,0.1-0.1,0.1-0.1c0,0.1,0,0.1-0.1,0.1c-0.1,0.2-0.2,0.4-0.3,0.7
		c0.1-0.2,0.1-0.4,0.2-0.6c-0.1,0.1-0.1,0,0,0c0,0,0,0,0.1,0C140.6,148.5,140.7,148.3,140.8,148.1z"/>
	<polygon class="st0" points="121.9,45.2 121.7,45 121.8,45.1 121.7,45 121.2,44.4 121.2,44.3 121.6,44.7 121.3,44.4 121.6,44.7 	
		"/>
	<path class="st0" d="M113.1,32.1c-0.5-1-0.8-1.9,0-0.9c0.5,0.9,1,1.6,1.7,2.3c0.2,0.4-0.1,0-0.1,0l0.9,1.2c0.1,0.5-1.6-1.9-1.3-1.3
		c-0.3-0.7-0.8-1.3-1.2-1.9c-0.6-0.8,0.5,1,0.8,1.6l0.2,0.2l-1-1l0.3,0.2l0.5,0.5C113.1,32.1,113.1,32.1,113.1,32.1z"/>
	<path class="st0" d="M104.7,22.8c0.2,0.1,0-0.2,1,0.8l0.8,1l-0.3-0.4c0,0.1,0,0,0,0c-0.2-0.2-0.3-0.3-0.5-0.5l-0.4-0.3l-0.1-0.2
		l0.2,0.2c-0.1-0.1-0.2-0.2-0.2-0.2L104.7,22.8z"/>
	<path class="st0" d="M108,28.2c-0.2-0.2-0.4-0.4-0.6-0.6c0.1,0.1,0.1,0.1,0.2,0.2c-0.6-0.6-1-1.1-1.5-1.6c-0.7-0.7-0.4-0.4-0.2-0.3
		c0.5,0.5,1,1,1.5,1.6L108,28.2z"/>
	<path class="st0" d="M102.2,20.3l0.4,0.4l0.1,0.2l0.1,0.1l-0.1,0l0.1,0.2c-0.2-0.2-0.3-0.3-0.5-0.5l-0.2-0.2l0.1,0.1
		C102.3,20.5,102.3,20.4,102.2,20.3z"/>
	<path class="st0" d="M99.7,18.9L99,18.3c0-0.1,0.1,0,0.5,0.4c-0.2-0.2-0.3-0.3-0.5-0.5c-0.3-0.2-0.8-0.7-1.1-1
		c1,0.8,0.3,0.1,0.9,0.5c0.5,0.6,0.5,0.7,0.3,0.5L99.7,18.9c0.1,0,0.2,0.1,0.2,0.2c0.1,0.1,0.1,0.1,0.2,0.2l-0.2-0.1
		c0,0.1,0.1,0.1,0.1,0.2c0.2,0.1,0-0.1,0-0.1l1.1,1.1c-0.4-0.3-0.7-0.6-1.1-1c0,0,0,0,0,0c0,0-0.1-0.1-0.1-0.1c0,0,0,0,0,0
		c0,0,0,0,0,0C99.9,19.1,99.8,19,99.7,18.9z"/>
	<polygon class="st0" points="103.6,21.8 104.1,22.2 103.6,21.7 104,22.2 103.6,21.7 103,21.2 103.5,21.7 103.1,21.3 103.5,21.7 	
		"/>
	<path class="st0" d="M96.3,14.3l0.2,0.3c-0.4-0.4-0.9-0.8-1.3-1.3c-0.1,0-0.3-0.2-0.7-0.6c0,0,0,0,0,0c0,0,0,0,0,0c0,0,0,0,0.1,0
		c0,0-0.2-0.2-0.4-0.4c-0.1-0.1-0.1-0.1-0.2-0.2c0.1,0.1,0.1,0.1,0.2,0.2c-0.2-0.1-0.3-0.3-0.4-0.4l1,0.8c0,0,0.1,0.1,0.1,0.1
		c0,0.1,0.1,0.1,0.1,0.2c0,0,0.1,0.1,0.1,0.1C95.6,13.6,96,14,96.3,14.3z"/>
	<path class="st0" d="M94.1,12.1c-1.1-0.8-0.3-0.2,0.2,0.4c-1.3-1.1-1.8-1.6-1.4-1.3l-0.7-0.6L92,10.3c1.8,1.5,0.7,0.5,0.9,0.8
		C93.1,11.2,93.5,11.5,94.1,12.1z"/>
	<polygon class="st0" points="84.2,3.2 82.9,2.3 83.1,2.4 	"/>
	<path class="st0" d="M84.6,5.7L85.1,6l0.1,0.2c1.1,0.8,2.2,1.6,3.3,2.6C87.7,7.9,85.9,6.7,84.6,5.7z"/>
	<path class="st0" d="M95.3,13.5l0.5,0.5C95.6,13.8,95.4,13.7,95.3,13.5z"/>
	<path class="st0" d="M87.8,7.1l0.7,0.5l0.7,0.7C89.3,8.4,88.2,7.4,87.8,7.1z"/>
	<path class="st0" d="M107.6,26.7l-1.9-1.7c0.4,0.4-0.5-0.6,0-0.2C106.4,25.5,106.9,26.1,107.6,26.7z"/>
	<path class="st0" d="M104.6,22.8l-0.1-0.1C104.5,22.6,104.6,22.8,104.6,22.8z"/>
	<polygon class="st0" points="112.5,31.7 112.5,31.7 112.6,31.8 	"/>
	<path class="st0" d="M108.2,28.3c0.2,0.3,0.5,0.6,0.7,0.9L108.2,28.3z"/>
	<path class="st0" d="M104.5,23.7C104.6,23.8,104.6,23.8,104.5,23.7z"/>
	<path class="st0" d="M110.8,30c0.6,0.6,1.2,1.2,1.7,1.8c-0.3-0.2-0.6-0.4-0.9-0.7c-0.5-0.6-0.7-0.9-1.1-1.3l0.4,0.4L110.8,30z"/>
	<path class="st0" d="M109.6,29.7l-1.3-1.9c0.1,0.1,0.5,0.6,0.1,0h-0.1c-0.1-0.1,0-0.1,0,0l-0.7-1.1l0.7,1.1c-0.9-1.5,0.8,1-0.5-0.9
		c0.4,0.5,0.8,1,1.2,1.5c0.3,0.7-0.4-0.3-0.6-0.5C108.9,28.7,109.3,29.2,109.6,29.7z"/>
	<path class="st0" d="M99.5,17.7C99.8,17.9,99.5,17.7,99.5,17.7z"/>
	<path class="st0" d="M101.6,19.7c-0.4-0.5-0.9-1.1-1.5-1.5l-0.1-0.1c-0.8-0.7-0.1-0.2,0.2,0c0,0.1-0.4-0.3,0,0.1
		c0.2,0.2,0.5,0.4,0.7,0.6C101.1,19.1,101.4,19.4,101.6,19.7z"/>
	<polygon class="st0" points="114.8,36.1 114.3,35.4 114.4,35.4 	"/>
	<path class="st0" d="M123.4,188.1l0.4-0.7C123.7,187.6,123.6,187.8,123.4,188.1z"/>
	<path class="st0" d="M125.6,184.6v0.1C125.5,184.9,125.5,184.8,125.6,184.6z"/>
	<path class="st0" d="M143.7,101.4l-0.1,0.3c-0.1-0.7-0.1-1.3-0.1-2C143.5,100.2,143.6,100.7,143.7,101.4z"/>
	<path class="st0" d="M140.6,147.2c0,0.2,0,0.5,0,0.7l-0.1,0.3C140.6,147.9,140.6,147.5,140.6,147.2z"/>
	<path class="st0" d="M107.3,211.1l0.4-0.8C107.7,210.5,108.1,210.1,107.3,211.1z"/>
	<path class="st0" d="M132,61.7c-0.2-0.7-0.5-1.4-0.9-2C131.5,60.5,131.7,61.2,132,61.7z"/>
	<path class="st0" d="M132,62.7l1,1.6l0.2,0.4C132.7,64.1,132.3,63.4,132,62.7z"/>
	<path class="st0" d="M37.4,270.7h0.2H37.4z"/>
	<path class="st0" d="M120.7,41.8c-0.1-0.1-0.1-0.1-0.2-0.2C120.5,41.7,120.7,41.8,120.7,41.8z"/>
	<path class="st0" d="M135.6,68.8C135.5,68.7,135.5,68.6,135.6,68.8z"/>
	<path class="st0" d="M121.4,43.5l0.3,0.5C121.3,43.5,121.4,43.5,121.4,43.5z"/>
	<path class="st0" d="M77.6,241.5h0.1C77.4,241.9,77.1,242.1,77.6,241.5z"/>
	<path class="st0" d="M127.2,179.5c0.3-0.5,0.6-1,0.8-1.5C127.6,178.5,127.4,179,127.2,179.5z"/>
	<path class="st0" d="M139.9,146.3c0.1-0.4,0.2-0.9,0.4-1.4h0C140.2,145.4,140,145.8,139.9,146.3z"/>
	<path class="st0" d="M124.3,50.7L124.3,50.7C124.8,51.6,124.7,51.3,124.3,50.7z"/>
	<path class="st0" d="M123.2,48.9c0.2,0.3,0.4,0.6,0.5,1C123.6,49.5,123.4,49.2,123.2,48.9C123.1,48.8,123.1,48.8,123.2,48.9
		L123.2,48.9z"/>
	<path class="st0" d="M72,244.9l-0.3,0.2C71.5,245.3,71.4,245.5,72,244.9z"/>
	<path class="st0" d="M139.7,77.2c0-0.3-0.1-0.6-0.2-0.9C139.7,77,139.7,77.2,139.7,77.2z"/>
	<path class="st0" d="M117.3,39.2c0.2,0.3,0.3,0.6,0.7,1.1l-0.9-1.2C117.4,39.5,117.3,39.3,117.3,39.2z"/>
	<path class="st0" d="M111.2,29.3l0.5,0.5C112.3,30.5,111.8,30.1,111.2,29.3z"/>
	<path class="st0" d="M115.9,36.9L116,37c-0.3-0.1,0.4,0.7,1.1,1.6C116.8,38,116.4,37.4,115.9,36.9z"/>
	<path class="st0" d="M115.3,36.4l0.6,0.8C115.5,36.7,115.1,36.3,115.3,36.4z"/>
	<polygon class="st0" points="117.8,38.1 117.4,37.7 117.3,37.3 	"/>
	<path class="st0" d="M120.9,40.9c0.2,0.2,0.3,0.3,0.3,0.3l0.9,1.4C121.7,42,121.3,41.5,120.9,40.9z"/>
	<path class="st0" d="M120.2,40.2l0.8,1.1L120.2,40.2z"/>
	<polygon class="st0" points="119,40.4 118.3,39.4 118.1,39 	"/>
	<path class="st0" d="M130.6,57.7c0.4,0.6,0.6,1,0.4,0.9l-0.9-1.6C130,56.7,130.1,57.1,130.6,57.7z"/>
	<path class="st0" d="M127.8,54.1h-0.2c-0.1-0.3-0.2-0.5-0.3-0.8L127.8,54.1z"/>
	<path class="st0" d="M130.6,56.7c1.1,2.1-0.2-0.1-0.3-0.2C129.6,55,130.5,56.6,130.6,56.7z"/>
	<polygon class="st0" points="139.3,78.7 139.6,78.5 139.8,79 	"/>
	<path class="st0" d="M130.3,176.3c0.2-0.4,0.4-0.7,0.6-1.1v0.1L130.3,176.3z"/>
	<polygon class="st0" points="122.3,189 122.8,188.5 122.6,188.8 	"/>
	<path class="st0" d="M116.2,198.9l-1.2,1.7C114.7,200.6,115.4,200.1,116.2,198.9z"/>
	<path class="st0" d="M19.5,287.8c0,0,0-0.1,0-0.1C19.6,287.6,19.5,287.8,19.5,287.8z"/>
	<path class="st0" d="M16.6,286.7C16.6,286.7,16.6,286.8,16.6,286.7z"/>
	<path class="st0" d="M16.6,286.7C16.6,286.7,16.5,286.7,16.6,286.7z"/>
	<path class="st0" d="M15.6,286.7C15.6,286.7,15.5,286.7,15.6,286.7z"/>
	<path class="st0" d="M16.6,285.7C16.6,285.7,16.6,285.7,16.6,285.7z"/>
	<path class="st0" d="M4.5,280.7C4.6,280.7,4.5,280.7,4.5,280.7z"/>
	<path class="st0" d="M9.4,284.7v-0.1C9.5,284.7,9.5,284.7,9.4,284.7c0.1,0,0.2,0,0.2,0C9.5,284.7,9.4,285,9.4,284.7z"/>
	<path class="st0" d="M4.6,281.7C4.6,281.7,4.5,281.7,4.6,281.7z"/>
	<path class="st0" d="M12.4,285.8h0.2C12.7,285.6,12.6,285.7,12.4,285.8z"/>
	<path class="st0" d="M11.6,285.7h-0.2C11.5,285.8,11.6,285.7,11.6,285.7z"/>
	<path class="st0" d="M11.6,269.7C11.6,269.8,11.6,269.7,11.6,269.7z"/>
	<path class="st0" d="M13.5,285.7C13.5,285.7,13.6,285.8,13.5,285.7z"/>
	<path class="st0" d="M7.5,275.7C7.6,275.7,7.5,275.7,7.5,275.7z"/>
	<path class="st0" d="M7.5,281.7L7.5,281.7L7.5,281.7z"/>
	<path class="st0" d="M4.6,281.7C4.6,281.7,4.5,281.8,4.6,281.7z"/>
	<path class="st0" d="M11.5,282.7L11.5,282.7C11.5,282.7,11.5,282.7,11.5,282.7z"/>
	<path class="st0" d="M14.6,285.7C14.6,285.7,14.5,285.7,14.6,285.7z"/>
	<path class="st0" d="M14.5,285.7C14.5,285.7,14.6,285.7,14.5,285.7z"/>
	<polygon class="st0" points="10.6,284.6 10.5,284.9 10.6,284.6 	"/>
</g>
<path class="st0" d="M435.2-321.3l3,0.1L435.2-321.3z"/>
<path class="st0" d="M410.3-322.3h-0.7C410.9-322.3,411.4-322.3,410.3-322.3z"/>
<path class="st0" d="M424.2-321.2c2.2,0,3.1,0,3,0C426.2-321.3,425.2-321.3,424.2-321.2z"/>
<path class="st0" d="M376-319.9L376-319.9c4,0,6,0.1,8.8-0.1C383.1-320.1,378.4-319.9,376-319.9z"/>
<path class="st0" d="M353.8-322.2h-0.5c1.1,0,2.7,0,6-0.2L353.8-322.2z"/>
<polygon class="st0" points="441.8,-322.4 443.2,-322.1 440.2,-322.4 "/>
</svg>
