<?xml version="1.0" encoding="utf-8"?>
<!-- Generator: Adobe Illustrator 24.1.2, SVG Export Plug-In . SVG Version: 6.00 Build 0)  -->
<svg version="1.1" id="Layer_1" xmlns="http://www.w3.org/2000/svg" xmlns:xlink="http://www.w3.org/1999/xlink" x="0px" y="0px"
	 viewBox="0 0 825 347.9" style="enable-background:new 0 0 825 347.9;" xml:space="preserve">
<style type="text/css">
	.st0{fill-rule:evenodd;clip-rule:evenodd;fill:#1D1D1B;}
</style>
<g>
	<path class="st0" d="M824.2,224c-0.2,0.6-0.5,1.3-0.8,1.9C823.7,225.3,824,224.6,824.2,224c0-0.2,0.1-0.3,0.1-0.3
		c0.4-1.8,0.9-3.6,0.6-2.4c-0.2,0.7-0.3,1.5-0.5,2.2c0.1-0.2,0.1-0.4,0.2-0.5c-0.1,0.2-0.1,0.4-0.2,0.6c-0.2,0.6-0.3,1.2-0.5,1.8
		c-0.2,0.7-0.3,0.9-0.3,1.1c-0.1,0.4-0.2,0.9-0.4,1.3c-0.1,0.4-0.3,0.9-0.6,1.6l-1.1,2.7c-0.7,1.2-0.7,1.1-0.1,0
		c0.8-2,1.5-4,2.1-6.1C823.2,227.1,823.8,225.7,824.2,224z"/>
	<path class="st0" d="M667.8,47.2c-2-0.8-4-1.5-6-2.2c3.7,1.2-2.8-0.9-7-2.5c-4.5-1.4-11.9-3.8-17.1-5.5l-9.1-2.6
		c10.2,2.9-0.7-0.4-1.2-0.7c-2-0.5-3.9-1-5.9-1.4c-2.3-0.7,3.8,0.9-0.5-0.2l-9.7-2.4c-3.9-0.8-7.7-1.7-9.6-2l3.7,0.9h0.2l0.4,0.1
		l-0.5-0.1l-1.6-0.3c-7.3-1.7-4.7-1-4.4-0.9c-4.2-1-7.5-1.6-10.5-2.2l-9-1.8c8.7,1.7-19.4-3.2-14-2c-6.3-1.1-4.3-0.6-8.4-1.3
		c4.4,0.6,8.9,1.1,13.1,1.8l11.8,1.8l-7-1.3c4.6,0.4,15.7,2.9,19.9,3.7c-2.8-0.5-9.1-1.8-9.3-1.9l1.9,0.5c10,1.9,17.9,3.6,24.9,5.2
		c-6.6-1.7,8,1.9,3.3,0.6c-1.8-0.4-3.5-0.9-5.3-1.3c-1.2-0.3-0.5-0.2,0.8,0.1l4.8,1.1c4.1,1.1,9.1,2.3,14.3,3.9l7.9,2.3
		c2.7,0.7,5.3,1.7,7.8,2.5l7.3,2.3l6.2,2.3c3.8,1.4,6.7,2.4,8.1,3c-3.3-1.2-9.3-3.3-12.2-4.3l7.5,2.8l-8.8-3.2
		c-3.1-1.1-6.6-2.2-11.1-3.6c1.6,0.6-5.1-1.4,1.8,1c8.7,2.8,12.2,4.1,16.2,5.4c2,0.6,4.2,1.3,7,2.4l11.7,4.6c1,0.3-0.1,0-0.1,0
		s0.3,0.2,1.3,0.6l5.3,2.3c3.4,1.5,6.6,2.7,9.4,4l0,0c0.4,0.2,0.7,0.3,1.1,0.5l-0.3-0.1l6.4,3L708,64c0.6,0.3,1.2,0.5,1.8,0.7
		c-5.6-2.8-16.8-8-18.6-8.8c2.9,1.2,6.7,3,9.9,4.5c3.2,1.5,5.7,2.8,6,2.8c5.7,3-10.6-5-3.1-1.2c3.9,1.8,5.7,2.6,7.4,3.5
		c-2.5-1.3,3.4,1.9,4.5,2.6c3.1,1.6,5.9,3.2,8.5,4.6c2.6,1.4,5,2.9,7.5,4.4c4.9,2.9,9.8,6.1,16.1,10.3c0.7,0.5,2,1.5,1.6,1.3
		c6.1,4.2,14.6,10.5,12.5,8.7c3.4,2.8,5.1,4.2,6.7,5.6l6,5c-8.7-8,1.8,1.5,2.7,2.3c1.6,1.3,3,2.8,4.3,4.4c0.9,0.9,3,3,3.2,3.1
		c3.1,3.4-6.5-6.2-2.9-2.2l3.2,3.5c1.4,1.6,2.9,3.4,4.5,5.2c3,3.6,5.6,7.1,6,7.5c1.1,1.4,1.7,1.8,1.5,1.3c-0.6-1.5-1.5-2.9-2.5-4.1
		c0.9,1,1.8,2.2,2.6,3.3l3.5,5.2c2.6,4.1,4.6,7.1,6.4,10.1c0.9,1.5,1.9,2.9,2.6,4.5c0.8,1.6,1.6,3.2,2.5,5c-1-1.9-1.9-3.6-2.9-5.4
		l3.3,6.5c1.4,3.1,2.8,6.2,3.2,7.1c0.1,0.3-2.7-5.5-1.3-2.1c2.5,5.9,4.6,12,6.3,18.3c1.3,5,1.8,8.1,1.8,7.7
		c-0.5-3.7-1.3-7.3-2.4-10.8c-1-3.6-2.2-7.1-3.5-10.5c1,2.3,1.9,4.7,2.6,7.1c1.2,3.7,2.1,7.5,2.1,7.1c1.6,6.7,2.3,13.5,2.2,20.3
		c0.1-2.5,0-4.9-0.4-7.4c0.2,4.4,0.2,5.5,0.2,6.3c0,0.8,0,1.2-0.2,4.1c0.2-6.3-0.3-12.5-1.6-18.7c-1.1-5.3-2.6-10.4-4.6-15.4
		c1.2,3.3,2.2,6.6,3,10l0.5,2.6c1.3,6,2,12.1,2.1,18.3c0.1,3.7-0.1,7.4-0.6,11c-0.4,1.9-0.7,3.2-1,4c-0.1,0.4-0.2,0.8-0.4,1.1
		c0-0.7,0.1-1.4,0.3-2c-0.5,1.9-0.9,3.5-1.4,4.9s-1,2.7-1.3,3.8l-0.6,1.6l-0.6,1.4l-1.2,2.7c-2.2,4.7-5,9.1-8.2,13.1
		c1.2-1.6,2.5-3,3.5-4.7c-0.8,1.2-1.6,2.3-2.5,3.4c-0.6,0.7-1.2,1.5-1.8,2.2c-0.5,0.7-1.2,1.4-1.8,2.1c-1.2,1.4-2.3,2.6-3.1,3.4
		c-0.8,0.8-1.2,1.2-0.9,1c-2.2,2.2-4.5,3.9-2,1.5c-3.2,3.3-6.7,6.3-10.3,9.2c1.6-1.2,0.4-0.7,1-1.2l-5,3.9c-1,0.8-1,0.9,0.5-0.1
		c-2.2,1.5-3.8,2.5-5,3.3c-1.2,0.8-2,1.3-2.8,1.8c-1.5,0.9-2.8,1.7-6.7,3.8c-2.8,1.6,0.4,0.1,2.4-1c-6.2,3.7-10.1,5.5-13.1,7
		c5.3-2.7,5.9-3.2,5.5-3.2s-1.9,0.6-1,0c-7.5,4.1-15.1,7.9-22.9,11.4c0.8-0.4,1.6-0.8,2.4-1.3c-0.9,0.5-8.2,3.6-17,6.8
		c-8.8,3.2-19.3,6.4-26.2,8.4l2.1-0.6c2.8-0.9-9.1,2.5-14,3.8c0.8-0.3,2-0.5,4-1.1c-9.3,2.3-12,3.4-21.5,5.5c8.6-2,10.3-2.5,9.8-2.5
		c-7,1.9-23.5,5.4-20,4.9c-4.6,1-8.7,1.8-8.3,1.6c-5.8,1.3-11.6,2.4-17.4,3.6c1.3-0.3,2.4-0.6-2.7,0.4c9.8-1.9,19.3-4,24.5-4.9
		c0.2-0.2-3.5,0.5,1.2-0.7c-9.4,2.1-16.7,3.5-23.2,4.9c-6.4,1.4-12,2.6-18,3.7l-16.8,2.8l-0.7,0.2l-2.9,0.3
		c-2.1,0.4-3.5,0.6-3.9,0.7s0.1-0.1,1-0.2l-4.2,0.7c1.8-0.5,3.6-0.9,5.4-1.2c1.5-0.2,3.1-0.4,4.6-0.7c3.3-0.7,5.6-1.2,1-0.4
		l-2.3,0.4c2-0.5,3.3-0.7,1.8-0.5c-4.2,0.8-8.5,1.4-12.8,2.1l6.2-0.8c-8,1.3-17.2,2.9-10,1.9l-9.8,1.4c-11.5,1.8-9.5,1.4-23.5,3.4
		c-0.8,0,3-0.6,0.4-0.2c-2.5,0.4-5.4,0.8-8.2,1.1l-8.4,0.8c-5.3,0.5-9.5,0.9-10.6,1.1c-8.3,0.9-3.4,0.6-8.7,1.1c0.2,0,0.7-0.1-0.8,0
		l-6.3,0.7c-2.5,0.2,5.7-0.5-1.3,0l-15.4,1.4c-4.5,0.4-8.8,0.6-13.9,0.9c-14.4,0.9,6.2-0.1-6,0.6c-1.8,0-3.4,0-11,0.3
		c-4,0.2-3.5,0.3-10.3,0.6l0.4-0.2l-8.1,0.3c-1.1,0.1-2.2,0.1-3.3,0c-5.2,0.3-8.7,0.3-11.4,0.3c-9.6,0.2,7.1,0.3,9.3,0.3
		c-9.4,0-15.9,0.1-21.3,0l8.3-0.1c-8.9,0-13.1,0.2-16.1,0.2s-4.9,0-9-0.2h8.5c2.1-0.1,3-0.1,1.3-0.1h-8.8c-1,0,5.1,0.1,1,0h-10h0.1
		c-5.4-0.1-10.7-0.1-15.9-0.3c3,0.2,3.8,0.1,0.7,0l-10.4-0.3c3.2,0.1-0.1-0.1-4.8-0.3l-11.7-0.4c-2.3-0.1-4.3-0.1-9.5-0.5l3.3,0.2
		l-5.3-0.4c-0.3,0.1-2.4,0-5.4-0.2l-5.1-0.3l-5.8-0.5c-7.9-0.7-15.8-1.4-16.4-1.3c-7.6-0.8-0.5-0.1,9.3,0.6l-8.1-0.8l9.6,0.9
		c-5.3-0.6-10.5-1-15-1.4l-11.4-1.2c-4.1-0.5,3.2,0.1-8.4-1.2c-16.3-1.9,3.1,0.6-6.7-0.5c-2.3-0.4-4.7-0.8-7-1.2
		c-6.2-0.8-11.6-1.6-16.9-2.4c-2.6-0.4-5.1-0.8-7.7-1.3l-7.7-1.4l-4.1-0.7c-11.2-2-23.4-4.2-31.7-6.1c2,0.3-4.7-1.1-5.7-1.4
		c-5-1.2-10-2.3-15-3.5c2.5,0.7,5,1.3,7.6,1.6l-10.1-2.4c1.9,0.4,3.9,0.9,1.5,0.2c-5.3-1.2-10.4-2.7-15.7-4l4.2,1.2
		c-3.9-1.1-12.3-3.5-17.8-5.3c0.5,0.1,2.4,0.7,2.9,0.8c4.6,1.5,7.3,2.2,9.7,2.8c-10.7-3.2-2.6-0.8-7.8-2.4
		c-7.5-2.2-10.6-3.2-8.7-2.5c-8.5-2.7-11.1-3.8-19.7-6.8l1.7,0.5l-7.8-3l6.4,2.3c-7.5-2.9-8.1-3.1-9.1-3.4c-0.9-0.3-2-0.6-10.2-4.2
		v-0.1c-6.3-2.7-8.5-3.5-13.3-5.9c-6-2.9,10.2,5.1-3.9-1.8c-2.4-1.3-7.7-4-11.6-6.2c-4.5-2.4,3.2,2,6.1,3.4c-5.2-2.7-8.6-4.6-11-6
		c-2.4-1.4-3.9-2.4-5.3-3.3c-1.4-0.9-2.8-1.7-4.9-3l-9.4-6c6,4-5.2-3,9.1,6.2c-3.5-2.1-6.9-4.4-10.2-6.6c-3.3-2.2-6.6-4.7-10.1-7.1
		l4.5,3.2c-2.5-1.8-5.4-3.7-6.7-4.7l0.6,0.3c-6.9-5.1-13.4-10.8-19.4-16.9c1.8,1.5,0.3,0.1-1.8-2.1c-2.1-2.3-4-4.7-5.8-7.2
		c3.2,4.2,6.7,8.2,10.4,11.9c1.9,1.8,3.6,3.5,5,4.7c0.8,0.8,1.7,1.5,2.6,2.1l-4.3-3.9c-1.4-1.3-2.7-2.6-4.1-4c1.9,2,4.8,4.7,5.6,5.3
		c-1.2-1.1-2.3-2.1-3.3-3.2l0.1,0.1c-0.1-0.1-0.1-0.1-0.2-0.2c-7.4-7.3-11.6-12.6-15.4-18.5c2.5,4,5.3,7.9,8.5,11.4
		c-2.4-2.5-4.6-5.3-6.5-8.1c-3.6-5.1-6.4-10.7-8.5-16.5c0.5,1.4,0.6,1.5,1.1,3c-1.2-3-2.2-6.2-2.9-9.4c-0.2-1.3-0.5-2.5-0.7-3.6
		s-0.3-2.1-0.3-3.1c-0.1-1.7-0.2-3.4-0.1-5c0-1.5,0.1-3,0.2-4.5c0.1-0.7,0.1-1.5,0.2-2.5c0.1-1,0.3-1.8,0.4-2.7
		c0.3-1.7,0.7-3.5,1.2-5.2c0.7-3,1.4-4.7,0.7-2.8c0.4-1.2,0.2-0.5-0.3,0.9c-0.3,0.7-0.5,1.7-0.7,2.8s-0.6,2.2-0.8,3.4
		c-0.9,4.6-1,8.9-0.9,4.4c0.7-4.9,1.9-9.8,3.5-14.5c2.6-7.1,6.3-13.9,10.8-20c-0.6,0.8-1.1,1.6-1.6,2.4c0,0.1,0.4-0.5,0.8-1
		c0.8-1.1,1.7-2.3-0.4,0.8l3.1-4.4l2-2.6c1-1.4,1.7-2.3,3-3.9c0.6-0.7,1.2-1.4,1.9-2c3.9-4.6,4.5-5,5.4-6.1c0.5-0.5,1.1-1.2,2.5-2.5
		s3.3-3.4,6.7-6.4c-4.6,4,5.7-4.6,2.1-1.6c3.8-3.3,7.5-6.5,10.3-9l-0.5,0.4l2.4-2.1l2.2-1.8l3.5-2.7l4.9-3.7l4.7-3.5
		c1.9-1.4,4.3-3,7.7-5.4l-1.4,0.9C82.7,85.6,93.2,79,104,72.6c5.5-3,10.9-6.2,16.3-9.1l15.9-8.1L129,59c1.1-0.5,4.5-2.5,8.5-4.2
		c4-1.8,8.5-3.9,11.8-5.3l-4.7,2.2c0.2,0,2.8-1.1,7.7-3.3l1.9-1l2.1-0.8c7.7-3.2-2.3,0.8,5.4-2.4c4.5-1.8,33.3-13,40.3-14.8
		c5.3-2-14.9,5-9.1,2.8l8.6-2.8l-1.8,0.5c23.9-8,33.2-10.4,54.8-16.2l-0.9,0.2c7.7-1.9,11.9-3,15.3-4c1.6-0.3-3.9,1.1-0.9,0.4
		c6.8-1.8,13.6-3.4,19.8-4.7c6.2-1.3,11.7-2.4,15.9-3.4c-1.1,0.4,17-3,9.5-1.2l5.6-1.2c-0.9,0.3-5.4,1.1-9.9,2.1
		c-4.6,1-9.3,2-10.9,2.4L289,6.2l-8.8,2c0.5-0.1-2.3,0.7,0.5,0c-4.4,1-8.2,1.9-2.4,0.7c-21.1,4.8-42.4,10.3-63.2,17
		c-20.8,6.6-41.3,14.2-60.9,22.5c-2.6,1.2-1,0.6,0,0.2c-7.2,3.1-6.8,3.2-10.7,5c-3.5,1.5-7.1,2.9-10.5,4.7c-4.1,2.2-0.8,0.6-1.1,0.8
		c-4.8,2.5-9.7,4.8-14.4,7.3L103.8,74c-4.4,2.4-8.6,5.2-12.7,7.7l-6,3.7l-5.5,3.9c-4.7,3.1,1-0.9-5.1,3.3c4.2-2.8-0.3,0.2-5,3.7
		c-4.7,3.5-9.6,7.4-7,5.5c-1.5,1-3.5,2.5-5.7,4.3l-3.4,2.6c-1.1,0.9-2.2,1.8-3.2,2.7c-4.1,3.5-7.2,6.1-6.1,4.9
		c-6.8,5.8-5.5,4.9-3.5,3.3c-6.9,5.8-13.2,12.2-18.9,19.2c-5.8,6.7-10.7,14.2-14.6,22.3c-2.5,5.3-4.3,10.9-5.3,16.6
		c-0.4,2.3-0.7,4.6-0.8,7c0,2,0,3.7,0,4.8c0-3.1,0-3,0-1.4c0.1,2.6,0.3,5.2,0.8,7.8c-0.3-1.8-0.3-3.5-0.5-5.3
		c0.4,4.5,1.2,8.9,2.6,13.1c0.5,1.3,0.7,2.1,1,2.6c0.2,0.5,0.2,0.7,0.2,0.7c0.5,1.7,1.2,3.3,2,4.9c1,2,1.9,3.6,2.6,4.8l1.8,2.9
		c1,1.6,1.9,2.7,3.4,4.7c-0.3-0.4-0.5-0.8-0.8-1.1c1.2,1.7,2.6,3.3,3.8,4.9c0.8,0.9,0.5,0.5-0.3-0.3l-2.7-3.2
		c-0.9-1.1-1.5-2-1.4-1.8c1,1.5,2.1,3,3.3,4.4l3.4,3.8c1.9,2,4.1,4.3,5.5,5.7c-5.4-5.4-4.7-4.7-2.9-2.6c2.5,2.6,5.1,5,7.8,7.4
		l-2.5-2.5c5.7,5.3,11.8,10.1,18.2,14.5l4.8,3.4c1.6,1.1,3.3,2.2,5,3.3l5,3.3c1.6,1.1,3.3,2,5.1,3.1c13.9,8.3,28.4,15.7,43.4,21.9
		c-0.2,0,5.1,2.4,10.3,4.3l6.7,2.7c1.6,0.6,2.5,1,1.8,0.8l-1.2-0.5c-3.8-1.4-3.3-1.1-1-0.2s6.3,2.3,9.4,3.4
		c-6.5-2.4,11.7,3.9-4.1-1.8c4.1,1.4,8.2,2.8,12.3,4.1c3.5,0.9,11.7,3.4,21.5,6.3c9.8,2.8,21.1,5.7,30.7,7.8
		c-1.4-0.3-1.7-0.4-1.9-0.4c8.5,1.9,18,4,26,5.5s14.3,2.6,16.3,3l1.5,0.4l9,1.5l6.9,1l18.1,2.7c-0.2,0-2.3-0.3,0.5,0.2
		c4.2,0.6,8.5,0.8,20.6,2.3h-0.5l9.4,1.1l9.5,0.8c1.7,0.3,3.4,0.5,5.1,0.6l11.8,1c8.9,0.5,18.4,1.1,21.3,1.5
		c3.7,0.2,17.6,0.6,23.8,0.8c0.5,0.1,1,0.1,1.4,0.1l29.1,0.6c5.3,0,3-0.1,0.7-0.2c5.2,0.2,12.4,0,18.8-0.1l13.8-0.3
		c7.6-0.3,2.9,0,5,0c11.3-0.5-1.9-0.3,13.3-0.7c-1.8,0.1-5,0.2-3.8,0.2c2.9-0.1,7,0,11-0.1c4.1-0.1,8.1-0.3,11-0.5l-3.8,0.2
		c5.3-0.4,11.6-0.7,16.7-0.9c3.4-0.1,6.7-0.3,10-0.8h-1c18.2-1.4,7.7-0.6,26.2-2.2h-0.2c8-0.8,12.4-1.1,16.3-1.8l-2.8,0.3
		c10-1.1,10.9-1.2,21-2.5c1.2-0.2,6.1-0.8,7.5-1l28.1-4.2c-8,1.3-4.2,0.7-1.9,0.5c4.7-0.9,7.9-1.3,14.4-2.4c0.9-0.4,2.1-0.8,15-3.1
		c-1.3,0.2-2.6,0.4-3.8,0.8c1.3-0.2,4.3-0.7,5.3-0.9c1.3-0.2-2.8,0.6-1.4,0.4l27.4-5.3c-3.9,0.8-0.5,0.2,0.9,0
		c1-0.4,17.1-3.4,12.3-2.7c12.2-2.5,27.6-6.2,41-9.9c13.4-3.7,24.8-7.7,29.4-9.3c2.5-0.8,8.9-3.4,13-5.1l-0.5,0.3
		c5.6-2.4,7.8-3.4,10.1-4.5c2.4-1.1,5-2.3,11.4-5.6c-5.3,2.7-2.9,1.7,2.4-0.9c2.9-1.6,5.7-3.2,8.5-5l1.8-0.8
		c3.4-2.1,7.2-4.6,10.8-7.2c-1.8,1.3-0.8,0.5-0.7,0.5l3.1-2.5c1.5-1.2,3.4-2.8,5.3-4.5c1.9-1.6,3.7-3.4,5.1-4.8l3-3.2
		c1.8-1.9,3.6-3.9,5.1-6c1.7-2.2,3.2-4.5,4.1-5.7c0.8-1.2,1.6-2.9,2.6-4.6c-1.1,1.8-1.6,2.4,0.4-1l0.4-0.8l0.8-1.5
		c1.5-3.3,2.7-6.6,3.7-10.1c-0.4,1.1-0.7,2.5-1.2,3.9c0.6-1.6,1-3.1,1.4-4.6c0.1-0.5,0.4-1,0.4-1.4c-0.1,0.3-0.1,0.6-0.2,0.8
		c0.7-2.7,1.2-5.5,1.5-8.3c0.9-7.6,0.5-15.2-1.1-22.7c-1.6-7.8-4-15.5-7-22.8c0.9,2.2,2.1,5.2,2.4,6c-4-10.7-9.4-20.8-15.9-30.2
		l0.2,0.6c-4.7-6.7-9.8-13.1-15.4-19.2l-0.4-0.2c-5.1-5.5-10.6-10.7-16.3-15.6c-6.3-5.4-12.4-10-15.1-12.1c-1.2-0.7-4.3-3-7.8-5.5
		c-3.5-2.5-7.6-5-10.3-6.7c-0.4-0.3-0.9-0.6-1.3-0.9c-7-4.3-11.5-6.8-15.9-9.1c-2.8-1.5-5.6-3-8.4-4.5c-2.1-0.8-4.4-1.7-7-2.8
		c1,0.3,3.6,1.3,6.8,2.7c-5.8-3-11.7-5.8-17.6-8.5l-3.2-1.2c0.6,0.2,1.1,0.3,1.7,0.5c-4.9-2.2-9.8-4.2-14.8-6.2h-0.1
		c-2.5-1-5-2-7.4-3l0.7,0.4h-0.2C668.3,47.5,668.1,47.3,667.8,47.2z"/>
	<path class="st0" d="M599.4,28c-0.1,0-0.3-0.1-0.4-0.1c0.2,0,0.4,0.1,0.6,0.1c0,0,0.1,0,0.1,0c0,0,0,0-0.1,0
		c0.9,0.1,1.6,0.2,1.5,0.2l7.9,1.7c0.1,0-1.2-0.2-3.1-0.6C604.1,28.9,601.8,28.4,599.4,28c-0.4,0-0.8-0.1-1.2-0.2
		C598.7,27.9,599.1,28,599.4,28z"/>
	<path class="st0" d="M613.9,32.4l-3.9-1L613.9,32.4c1.6,0.4,3.4,0.8,5.1,1.2C616.4,33,614.8,32.6,613.9,32.4l-0.9-0.2
		C613.3,32.3,613.6,32.3,613.9,32.4z"/>
	<path class="st0" d="M483.3,17c-2.8,0-5.5,0.1-8.3,0.1c0.3,0,0.7-0.1,1-0.1l-0.7,0c-0.1,0-0.1,0-0.2,0h-0.5c0.1,0,0.3,0,0.4,0h-0.6
		c-0.2,0-0.5,0-0.7,0h0.8c0,0-0.1,0-0.1,0h0.6c0.6,0,0.6,0,0.4,0l0.7,0c1.5-0.1,3.1-0.2,4.6,0h-0.3c0.3,0,0.5,0,0.8,0
		c0.2,0,0.5,0,0.7,0c-0.8,0-1.5-0.1-0.2-0.1l5.1,0.1c-2.9-0.1-1.4-0.1-0.9-0.1c4,0.1,8.1,0.2,12.2,0.3c-3.5-0.1-6.7-0.1-9.5-0.1
		L494,17l-8.4,0c0.1,0,0.3,0,0.4,0c-0.2,0-0.4,0-0.6,0h-2.8C483,17,483.2,17,483.3,17z"/>
	<path class="st0" d="M436.9,18.1c-0.3,0-0.6,0-0.8,0h-1c-6.3,0.4-1.3,0,0.7-0.2c0.1,0.1-2.7,0.3,0.1,0.1l0.5,0h-0.1
		c0.4,0,0.7,0,0.9-0.1l3.9-0.3c3.7-0.1,5.2,0,6.8,0.1c0.9,0-4.5,0-9.6,0.3c-0.8,0.1-1.6,0.1-2.3,0.2
		C436.3,18.1,436.6,18.1,436.9,18.1z"/>
	<path class="st0" d="M509.2,17.9l2.8,0.1c-0.5,0-2.5-0.1-4.2-0.2l-1.9-0.1h0.1c0.2,0,0.4,0,0.7,0c-0.1,0-0.1,0-0.2,0h-0.5h-0.3
		c-0.7,0-0.5,0,0.1,0h0.3l-7.2-0.4l7.6,0.3c-10.1-0.5,8,0.2-6.1-0.4c5.2,0.2,2.6,0,11.3,0.3c4.3,0.4-2.8,0.1-5.1,0.1
		c6.6,0.2,10.3,0.6,13.3,0.8l-7-0.5L509.2,17.9z"/>
	<path class="st0" d="M507.1,17.8c1.4,0.1,2.8,0.1-0.4,0h-0.1L507.1,17.8z"/>
	<path class="st0" d="M400.8,20.6c0.4,0,0.8-0.1,1.2-0.1l-7,0.8c1-0.2,1.9-0.3,2.9-0.4c1.2-0.2-3.7,0.3-4.9,0.5c2-0.3,4-0.5,6-0.8
		C401.8,20.4,403.2,20.3,400.8,20.6z"/>
	<path class="st0" d="M399.7,20.7c-0.3,0-0.6,0.1-0.9,0.2c-0.3,0-0.5,0-0.8,0C398.6,20.9,399.2,20.8,399.7,20.7z"/>
	<path class="st0" d="M266.3,41.6c-0.1,0,2.6-0.4-2.3,0.6C264.5,42.2,263.4,42.3,266.3,41.6z"/>
	<polygon class="st0" points="313.8,32.4 320,31.2 313,32.6 	"/>
	<path class="st0" d="M358,25.9c-3.4,0.4-8.2,1-13.4,1.7c-5.2,0.7-10.7,1.5-15.6,2.3l3.5-0.7l1.3-0.1C341.8,28,353.7,26.2,358,25.9z
		"/>
	<path class="st0" d="M382.2,23.6c-2.5,0.3-4,0.5-5.1,0.6l-1.1,0.1C388,22.9,380.6,23.8,382.2,23.6z"/>
	<path class="st0" d="M405,19.7l-3,0.4C402.5,20.1,403.3,20.1,405,19.7z"/>
	<path class="st0" d="M392,22.4c-12.1,1.5-13.9,1.5-1.8,0C383.9,23.3,388.4,22.7,392,22.4z"/>
	<path class="st0" d="M361,25.3c0.3,0-6.9,1-9,1.3l4.2-0.7L361,25.3z"/>
	<path class="st0" d="M438,17.7c-0.3,0-4.7,0.3-7,0.4l4.5-0.4C435.9,17.7,438.3,17.7,438,17.7z"/>
	<polygon class="st0" points="406.9,19.4 409,19.1 396,20.7 	"/>
	<polygon class="st0" points="463.9,16.9 467,16.8 460,17.1 	"/>
	<path class="st0" d="M501,18c-1.9,0-3.9-0.1-6,0C497,17.9,499,17.9,501,18z"/>
	<path class="st0" d="M453,16.9c0.6,0,1.7,0,6,0h-3L453,16.9z"/>
	<polygon class="st0" points="457,17 463,16.9 457.1,17 	"/>
	<path class="st0" d="M424,18.3c1.5-0.1,3-0.3,4.4-0.6C436.9,17.3,428.2,17.9,424,18.3z"/>
	<path class="st0" d="M450,17.7l-8,0.5c2-0.1,0.7-0.1,0.6-0.1L450,17.7z"/>
	<polygon class="st0" points="453,16.8 452.3,16.9 450,17 	"/>
	<polygon class="st0" points="537.4,18.9 536.7,18.9 536.6,18.9 	"/>
	<path class="st0" d="M549.2,19.2c2.3,0.3-0.7,0-0.6,0l8.2,0.7c2,0.3-13.8-1-9.9-0.6c-4.5-0.4-2.8-0.4-12.2-1
		c-6-0.3,7.2,0.6,9.7,0.9c-2.4-0.3-4.9-0.4-7.3-0.4c-6-0.6-10.5-1.1-3.6-0.7l10.2,0.7C546.7,19,548.9,19.2,549.2,19.2z"/>
	<path class="st0" d="M523.1,18.4l-1,0c5,0.3,10,0.8,15,1.3c-0.3,0-1.4,0-6.5-0.5c-4.6-0.6-7.1-0.7-10.5-1L523.1,18.4z"/>
	<path class="st0" d="M538.6,19.7c1.8,0.2,3.6,0.3,5.4,0.5c-2.3-0.2-4.7-0.3-7-0.5H538.6z"/>
	<polygon class="st0" points="553.6,20.7 557,21.2 553,20.7 	"/>
	<path class="st0" d="M369,340l-3-0.1L369,340z"/>
	<path class="st0" d="M394,340.9h0.7C393.4,340.9,392.8,340.9,394,340.9z"/>
	<path class="st0" d="M822,223.9c-0.4,1.1-0.9,2.2-1.3,3.5c-0.5,1.3-1.2,2.6-1.9,4.2c-0.3,0.4-0.5,0.9-0.8,1.3
		c0.4-0.9,0.8-1.7,1.2-2.6c0.4-0.9,1-1.8,1.4-3L822,223.9z"/>
	<path class="st0" d="M599,325.4c1.4-0.3,2.8-0.6,4-1c-0.8,0.3-1.8,0.5-2.8,0.7L599,325.4z"/>
	<path class="st0" d="M595,326.4l-7,1L595,326.4z"/>
	<path class="st0" d="M234.8,325.2c-0.5,0,2.1,0.5-3.8-0.7L234.8,325.2z"/>
	<path class="st0" d="M380,339.9c-2.2,0-3.1,0-3,0C378,340,379,340,380,339.9z"/>
	<path class="st0" d="M152.4,52.2c0.4-0.2,0.8-0.4,1.2-0.5L152.4,52.2z"/>
	<path class="st0" d="M290,9.2l-6,1.5L290,9.2z"/>
	<path class="st0" d="M752.1,90l0.3,0.2C751.4,89.6,751.6,89.6,752.1,90z"/>
	<path class="st0" d="M609,30.3l-2.9-0.7C605.7,29.5,606.1,29.6,609,30.3z"/>
	<polygon class="st0" points="763.9,281 763.7,281 764.2,280.8 	"/>
	<path class="st0" d="M754,285.9c2.2-0.9,4.4-1.9,6.5-2.9c1.2-0.4,2.3-0.7,3.5-1.1L754,285.9z"/>
	<path class="st0" d="M428.2,338.6L428.2,338.6c-4,0-6-0.1-8.8,0.1C421.2,338.8,425.9,338.6,428.2,338.6z"/>
	<path class="st0" d="M612.2,320.4l-7.4,1.3C607.8,321.2,610.5,320.7,612.2,320.4z"/>
	<path class="st0" d="M644.4,39.1L644.4,39.1c3.5,1.1,5.3,1.7,0.2,0H644.4z"/>
	<path class="st0" d="M634.1,35.8c-1.1-0.3-1-0.2-0.6-0.1c0.8,0.2,3.1,0.8,5.8,1.6C638.5,37.2,637.2,36.7,634.1,35.8z"/>
	<path class="st0" d="M4.3,205.7c-0.5-1.2-0.9-2.5,0.7,2L4.3,205.7z"/>
	<path class="st0" d="M594.9,325.8c-0.4,0.1-0.8,0.1-1.1,0.1C592.7,326.1,592.7,326.1,594.9,325.8z"/>
	<polygon class="st0" points="235.4,324.9 235,324.9 234.6,324.9 	"/>
	<path class="st0" d="M786,116.9l3,3C789.1,120,788.4,119.3,786,116.9z"/>
	<path class="st0" d="M581,25.3c2.2,0.4,0.9,0.1,0.7,0c1.7,0.4,2.9,0.5,6.3,1.3C585.7,26.1,583.3,25.7,581,25.3z"/>
	<path class="st0" d="M520.5,17.9c5,0.4,1.6,0.2-3.2-0.2H517L520.5,17.9z"/>
	<path class="st0" d="M575,24.8c-5.3-0.9-10.6-1.5-9.1-1.6l-0.9-0.1l6.7,1C572.8,24.2,573.9,24.5,575,24.8z"/>
	<path class="st0" d="M563,23.3l-3.9-0.7C558.6,22.6,560.7,22.9,563,23.3z"/>
	<path class="st0" d="M624.2,34.6c13.4,3.4-5.7-1.3-2.9-0.7C622.6,34.4,621.8,34,624.2,34.6z"/>
	<polygon class="st0" points="572,23.5 576,24.3 573.6,24 	"/>
	<path class="st0" d="M600,27.6l-7-1.3L600,27.6z"/>
	<path class="st0" d="M581,25.1l2.4,0.5c1.8,0.3,3.8,0.7,5.6,1.1C586.4,26.1,583.7,25.6,581,25.1z"/>
	<path class="st0" d="M689.1,55c-7.4-2.6,0.7,0.2,1.5,0.4C700.9,58.9,689.9,55.3,689.1,55z"/>
	<polygon class="st0" points="793.8,127.9 792.2,126.5 792.2,126 	"/>
	<polygon class="st0" points="312,3.6 314.5,3.1 319,2.2 	"/>
	<path class="st0" d="M325,1.5c1.2-0.2,4.4-0.9,6-1.2l-4.3,1L325,1.5z"/>
	<path class="st0" d="M450.5,340.8h0.5c-1.1,0-2.7,0-6,0.2L450.5,340.8z"/>
	<polygon class="st0" points="362.4,341 361,340.8 364,341.1 	"/>
</g>
</svg>
